<svg width="32" height="32" viewBox="0 0 32 32" fill="none" xmlns="http://www.w3.org/2000/svg">
<path d="M22.0003 4C20.7203 4 19.467 4.33333 18.3603 4.92L16.0003 12H20.0003L16.0003 25.3333L17.3337 13.3333H13.3337L15.387 6.14667C13.9603 4.81333 12.0137 4 10.0003 4C5.89366 4 2.66699 7.22667 2.66699 11.3333C2.66699 16.84 8.21366 20.9067 16.0003 28C23.2937 21.4133 29.3337 16.9867 29.3337 11.3333C29.3337 7.22667 26.107 4 22.0003 4ZM13.6537 22.3067C8.60033 17.7867 5.33366 14.6667 5.33366 11.3333C5.33366 8.72 7.38699 6.66667 10.0003 6.66667C10.787 6.66667 11.587 6.86667 12.307 7.22667L9.80032 16H14.3603L13.6537 22.3067ZM20.1737 20.7067L23.587 9.33333H19.707L20.5203 6.90667C21.0003 6.74667 21.507 6.66667 22.0003 6.66667C24.6137 6.66667 26.667 8.72 26.667 11.3333C26.667 14.28 23.9737 17.24 20.1737 20.7067Z" fill="#FF38B6"/>
</svg>
